<?xml version="1.0" encoding="UTF-8" standalone="no"?>
<!DOCTYPE svg PUBLIC "-//W3C//DTD SVG 1.1//EN" "http://www.w3.org/Graphics/SVG/1.1/DTD/svg11.dtd">
<svg width="100%" height="100%" viewBox="0 0 248 50" version="1.1" xmlns="http://www.w3.org/2000/svg" xmlns:xlink="http://www.w3.org/1999/xlink" xml:space="preserve" xmlns:serif="http://www.serif.com/" style="fill-rule:evenodd;clip-rule:evenodd;stroke-linejoin:round;stroke-miterlimit:1.41421;">
    <g>
        <g>
            <path d="M79.7,23.8C79.2,23.8 78.7,23.8 78.2,23.9C75.2,24 72.1,24.1 69.4,25.4C68.1,26.1 66.7,26.9 65.2,27.7C64.4,28.2 63.6,28.7 62.7,29.1L62.4,28.9C61.7,28.4 61.1,28 60.6,27.6C58.1,25.9 56.5,24.9 57.2,20.8C57.3,20.3 57.4,19.9 57.4,19.4C57.6,18 57.8,16.6 58.5,15.5C58.9,15 59.5,14.8 60.2,14.6C60.7,14.4 61.2,14.3 61.6,14C62.4,13.5 63.4,11.7 64.2,10.1C64.5,9.5 64.8,8.9 65.1,8.5C65.3,8.1 65.4,7.9 65.3,7.8C65.3,7.7 65.2,7.7 65,7.7L64.3,7.7L64.2,7.7C64.2,7.7 64.1,7.5 64.4,6.9C64.6,6.4 64.7,6.1 64.5,5.9C64.4,5.7 64.2,5.7 63.9,5.8C58.2,9.7 53.8,13.4 51,16.8C50,18 49.2,19.6 48.5,21.1C46.9,24.3 45.3,27.5 41.8,27.5C41.6,27.5 41.3,27.5 41.1,27.5C39.8,27.4 38.7,26.9 37.6,26.5C36.3,26 35.1,25.5 33.9,25.5C33.7,25.5 33.5,25.5 33.3,25.5L33,23C32.7,22 32,21.3 30.1,21.3C29.7,21.3 29.2,21.3 28.7,21.4C28.6,21.4 28.6,21.4 28.5,21.4C27.8,21.4 27.2,20.8 26.7,20.2C26.1,19.5 25.4,18.8 24.4,18.8C23.8,18.8 23.2,19.1 22.5,19.6L22,20L22.7,19.9C23.2,19.8 23.6,19.8 23.9,19.8C25,19.8 25.4,20.3 25.8,20.9C26.2,21.4 26.6,22.1 27.6,22.3C28.4,22.5 29.1,22.5 29.8,22.6C31.2,22.6 32.1,22.7 32.8,25L33,25.7C32,25.9 31,26.4 30.1,27.3C27,32 25.6,34 20.3,34.8C20.2,34.9 20,34.9 19.9,35C18.8,35.5 17.6,36 16.3,36.1C15.9,35.7 15.6,35.7 15,35.9C14.7,36 14.5,36.2 14.3,36.5C14.2,36.5 14.1,36.6 13.9,36.7C13.4,36.2 13,36 12.4,36C12,36 11.5,36.1 11,36.3L10.9,36.3L10.9,36.4C10.2,37.6 9.6,38.8 8.9,40L8.7,40.4L9.4,40.2C11.4,39.6 12.9,39.2 14.4,38C15.2,38.1 16.1,37.9 16.9,37.5C20.9,36 25.1,35.3 29.3,34.6C29.7,34.5 30.1,34.5 30.5,34.4C31.3,34.3 32.1,34.2 33,34.2C35.1,34.2 37,34.6 38.8,35.1C40,35.4 41.1,35.6 42.2,35.8C43.6,36 45,36.1 46.3,36.1C51.6,36.1 56.5,34.7 61.8,31.7C63.5,30.8 65.1,30 66.8,29.1L71.3,26.7C71.4,26.7 71.4,26.7 71.5,26.7C71.8,26.9 72.2,26.9 72.4,26.9C72.9,26.9 73.6,26.7 73.8,26.5C73.9,26.6 74,26.6 74.1,26.7C74.9,27.1 75.6,27.5 76.5,27.5L77,27.5C77.5,26.9 78.1,26.4 78.6,25.8L80.2,24.2L79.7,23.8ZM62.5,29.3C57.9,31.9 52.6,34.3 46.1,34.3C43.5,34.3 40.8,33.9 38.1,33.1C36.5,32.7 35,32.5 33.5,32.5C31.3,32.5 29.2,32.9 26.8,33.4C28,32.5 29.2,31.5 29.9,30C30.9,27.9 32.2,26.9 33.8,26.9C34.9,26.9 36.2,27.3 37.4,27.8C38.8,28.3 40.2,28.8 41.7,28.8C41.8,28.8 42,28.8 42.1,28.8C46.3,28.5 47.8,25.1 49.3,21.9C49.8,20.9 50.3,19.9 50.8,18.9C51.4,17.9 54.1,15 57,12.4C57,12.5 57.1,12.6 57.2,12.7C57.4,12.9 57.7,12.9 58.1,12.8C58.7,12.6 59.1,12.1 59.1,11.7C59.1,11.4 58.9,11.2 58.5,11.1C61.3,8.6 62.5,8.1 63,8.1C63.1,8.1 63.2,8.1 63.2,8.2C63.3,8.3 63.4,8.6 63.4,8.9C63.2,10.3 61.3,12.8 60.6,13.3C60.3,13.4 60,13.5 59.7,13.6C59,13.8 58.2,14 57.8,14.7C56.5,16.8 56.2,19 55.9,21.4C55.4,26.3 57.6,27.3 61.4,28.9C61.7,29 62,29.1 62.2,29.3L62.5,29.3Z" style="fill:rgb(0,112,136);fill-rule:nonzero;"/>
            <path d="M19,22.2C19.5,22.2 20,22.3 20.4,22.4C20.9,22.5 21.4,22.6 22,22.6C22.5,22.6 23,22.5 23.6,22.4C23.7,22.4 23.9,22.3 24,22.3C24.6,22.3 25,22.7 25.5,23.1C26,23.6 26.6,24.1 27.5,24.1C28.1,24.1 28.8,23.8 29.7,23.3L30.6,22.8L29.6,23C29.2,23.1 28.8,23.2 28.3,23.2C27.4,23.2 26.6,22.8 25.9,22C25.4,21.4 24.8,21.2 24.1,21.2C23.7,21.2 23.3,21.3 22.9,21.4C22.6,21.5 22.4,21.5 22.1,21.5C21.7,21.5 21.3,21.4 20.9,21.4C20.5,21.3 20.1,21.3 19.7,21.3C19,21.3 18.5,21.5 18,21.9L17.5,22.3L18.1,22.2C18.5,22.2 18.7,22.2 19,22.2" style="fill:rgb(0,112,136);fill-rule:nonzero;"/>
            <path d="M37.7,34.7C37.3,34.6 36.9,34.4 36.5,34.4C36.2,34.4 35.9,34.5 35.7,34.8C34.3,36.4 32.1,37.2 29.1,37.2C28,37.2 26.8,37.1 25.4,36.9C25.1,37 24.8,37.2 24.4,37.3C22.9,37.9 21.3,38.6 19.6,38.9C19.3,38.8 19.1,38.7 18.8,38.7C18.3,38.7 17.8,39 17.4,39.6C17,39.3 16.5,39.1 16,39.1C15.5,39.1 15,39.2 14.5,39.5C13.9,40.7 13.4,41.8 12.9,43L12.7,43.4L13.1,43.3C14.6,42.8 16.4,42.2 18,40.9C18.9,40.7 19.5,40.4 20.2,40.1C21.3,39.6 22.7,39 26.5,38.2C27.9,38.3 29,38.4 30,38.4C33.2,38.4 35.2,37.7 39,35.4L39.4,35.1L38.9,35.1C38.4,34.9 38,34.8 37.7,34.7" style="fill:rgb(0,112,136);fill-rule:nonzero;"/>
            <path d="M77.5,43C76.2,41.2 74.7,39.3 73.8,39.4C73.2,38.7 72.3,38.1 71.3,37.4C70.8,37.1 70.3,36.7 69.8,36.3C69,35.7 68.3,35.1 67.6,34.5C66.4,33.5 65.1,32.5 63.7,31.5L63.6,31.5C62.9,31.5 62.3,31.7 61.8,32L61.5,32.2L61.8,32.3C64.7,33.7 68.3,35.7 70.4,38.4C70.9,39 71.5,39.4 72.4,39.5C73,39.6 73.1,40.4 73.1,41.2C73.1,41.6 73.2,42 73.3,42.3L73.3,42.4L73.4,42.4C74.9,42.9 76.4,43.4 77.8,43.7L78.3,43.8L78,43.6C77.9,43.5 77.7,43.3 77.5,43" style="fill:rgb(0,112,136);fill-rule:nonzero;"/>
            <path d="M17.8,25.1C18.1,25.1 18.4,25.2 18.7,25.2C19,25.3 19.3,25.3 19.6,25.3C20.1,25.3 20.6,25.1 21,24.7C21.3,24.4 21.7,24.3 22.1,24.3C22.5,24.3 23,24.4 23.5,24.7L24.2,25L23.7,24.4C23.1,23.7 22.6,23.4 22,23.4C21.5,23.4 21,23.7 20.5,23.9C20.1,24.1 19.7,24.3 19.3,24.3C19.2,24.3 19.1,24.3 19,24.3C18.6,24.2 18.3,24.1 18,24.1C17.2,24.1 16.8,24.5 16.4,25L15.9,26L16.8,25.4C17.1,25.2 17.4,25.1 17.8,25.1" style="fill:rgb(0,112,136);fill-rule:nonzero;"/>
            <path d="M44,19.3C43.5,19.1 42.9,19 42.4,19C41.7,19 41.1,19.2 40.6,19.4C40,19.6 39.4,19.8 38.7,19.8C38.5,19.8 38.3,19.8 38.2,19.8L37.4,19.7L38,20C38.4,20.3 38.9,20.5 39.6,20.5C40,20.5 40.4,20.4 40.9,20.2C41.3,20.1 41.7,20 42.1,20C42.7,20 43.2,20.2 43.7,20.3C44.2,20.4 44.7,20.6 45.2,20.6C46.2,20.6 47,20.1 47.9,19L48.7,18.1L47.7,18.8C46.8,19.4 46.1,19.7 45.3,19.7C44.9,19.6 44.4,19.5 44,19.3" style="fill:rgb(0,112,136);fill-rule:nonzero;"/>
            <path d="M38.9,17.2C39.3,17.4 39.8,17.6 40.3,17.6C40.6,17.6 41,17.5 41.3,17.4C42.5,17 43.6,17 44.8,17.7C45.3,18 45.9,18.1 46.4,18.1C48.1,18.1 49.6,16.8 50.3,16.1L50.1,15.8C49.1,16.6 48,17 47,17C46.2,17 45.5,16.8 44.7,16.4C43.8,15.9 42.9,15.9 41.9,16.4C41.1,16.8 40.4,16.9 39.6,16.9C39.3,16.9 39,16.9 38.7,16.8L37.2,16.6L38.6,17.2C38.6,17.1 38.8,17.1 38.9,17.2" style="fill:rgb(0,112,136);fill-rule:nonzero;"/>
            <path d="M43.2,14C43.5,14.1 43.8,14.1 44,14.1C44.2,14.1 44.3,14.1 44.4,14C45.2,13.7 45.9,13.8 46.5,14.2C47.3,14.7 47.9,14.9 48.5,14.9C49.2,14.9 49.7,14.6 50.3,14.3C50.9,14 51.5,13.7 52.4,13.6L53.1,13.6L52.5,13.3C51.8,13 51,13 50.1,13.5C49.7,13.7 49.3,13.8 48.9,13.8C48.1,13.8 47.2,13.5 46.3,13C46,12.9 45.8,12.8 45.4,12.8C44.8,12.8 44.1,13 43.5,13.1C43.1,13.2 42.8,13.3 42.5,13.3L41,13.8L42.6,13.9C42.7,13.9 43,14 43.2,14" style="fill:rgb(0,112,136);fill-rule:nonzero;"/>
            <path d="M49,11.5C49.6,11.9 50.2,12.2 50.8,12.2C51.3,12.2 51.8,12 52.2,11.7C52.9,11.2 53.6,11.1 54.6,11.3L55.3,11.4L54.8,11C54.5,10.7 54,10.4 53.3,10.4C52.9,10.4 52.5,10.5 52.1,10.7C51.6,10.9 51.2,11 50.7,11C49.9,11 49.3,10.7 48.7,10.3C48.4,10.1 48,10 47.7,10C47.3,10 46.9,10.2 46.6,10.5L46.1,10.9L46.7,10.8C47.6,10.7 48.2,10.9 49,11.5" style="fill:rgb(0,112,136);fill-rule:nonzero;"/>
        </g>
        <g>
            <path d="M93.3,32.9L93.3,21.6C93.3,20.9 93.2,20.4 92.9,19.9C92.8,19.8 92.8,19.7 92.7,19.6L96.3,19.6C96.7,19.6 97.1,19.6 97.5,19.7C99.1,19.9 100.1,20.5 100.8,21.4C102.3,23.2 101.9,26.2 99.8,27.5C99,28 97.9,28.3 96.4,28.4C96.3,28.4 96.1,28.4 95.9,28.4L95.9,33.1C95.9,34 96.1,34.6 96.4,35.2L92.7,35.2C93.1,34.5 93.3,34 93.3,32.9M96.2,27.5C98.1,27.3 99.4,25.5 98.8,23.2C98.6,22.4 98.1,21.8 97.3,21.4C96.8,21.1 96.3,21 95.7,21.1L95.7,27.6C95.9,27.5 96.1,27.5 96.2,27.5" style="fill:rgb(0,112,136);fill-rule:nonzero;"/>
            <path d="M104.7,29.9C104.7,30.2 104.7,30.4 104.7,30.7C105,33.3 106.9,34.3 109.4,33.2C110,32.9 110.3,32.7 110.6,32.5C110.5,32.7 110.4,32.8 110.3,33C110.1,33.5 109.9,34 109.7,34.5C109.1,34.8 108.5,35 107.9,35.1C103.9,35.6 101.6,33.2 102.4,28.3C102.7,26.2 103.8,25 105.2,24.5C108.5,23.4 110.8,25.3 110.7,29.5C110.7,29.6 110.7,29.8 110.7,30L104.7,30L104.7,29.9ZM108.8,28.6C108.8,28.5 108.8,28.3 108.8,28.1C108.7,26.2 108,25.4 106.9,25.4C105.8,25.4 105,26.1 104.8,28.1C104.8,28.2 104.8,28.4 104.8,28.6L108.8,28.6Z" style="fill:rgb(0,112,136);fill-rule:nonzero;"/>
            <path d="M113.8,33L113.8,26.2C113.8,25.7 113.7,25.1 113.5,24.7C113.5,24.6 113.4,24.5 113.4,24.4L116.1,24.4L116.1,26.2C116.5,25.8 116.8,25.4 117.2,25C117.3,24.9 117.4,24.7 117.5,24.5C117.9,24.4 118.2,24.2 118.6,24.2C121,23.9 122.2,24.9 122.2,26.8L122.2,33C122.2,34 122.3,34.5 122.7,35L119.5,35C119.8,34.4 119.9,33.9 119.9,33L119.9,27.2C119.9,26.1 119.1,25.5 117.7,25.8C117.4,25.9 117,26.1 116.6,26.5C116.2,26.9 116.1,27.1 116.1,27.2L116.1,33C116.1,33.8 116.2,34.3 116.4,34.7C116.4,34.8 116.5,34.9 116.5,35L113.3,35C113.6,34.5 113.8,33.9 113.8,33" style="fill:rgb(0,112,136);fill-rule:nonzero;"/>
            <path d="M128.2,21.8L128.2,24.4L130.7,24.4L130.7,25.6L128.2,25.6L128.2,32.6C128.2,33.5 128.5,33.8 129.4,33.8C129.5,33.8 129.6,33.8 129.8,33.8C130.3,33.7 130.7,33.6 131,33.3C130.9,33.4 130.9,33.5 130.8,33.7C130.6,34.1 130.4,34.5 130.3,34.9C129.9,35 129.5,35.1 129.1,35.1C127,35.3 125.9,34.4 125.9,33L125.9,25.6L124.5,25.6C126,24.6 127.2,23.3 128.2,21.8" style="fill:rgb(0,112,136);fill-rule:nonzero;"/>
            <path d="M133.1,33L133.1,22.3C133.1,20.8 133,20.3 132.7,19.6L135.9,19.6C135.6,20.3 135.4,20.9 135.4,22.3L135.4,33C135.4,34 135.5,34.5 135.9,35L132.7,35C132.9,34.5 133.1,34 133.1,33" style="fill:rgb(0,112,136);fill-rule:nonzero;"/>
            <path d="M139.8,25.3C139.8,25.2 139.8,25 139.8,24.9C140.4,24.6 141.1,24.4 141.8,24.3C144.7,24 146.1,25.1 146.1,27.2L146.1,33C146.1,33.9 146.2,34.5 146.6,35L143.9,35L143.9,33.8C143.5,34.1 143.1,34.4 142.7,34.8C142.6,34.9 142.4,35 142.3,35.2C141.7,35.3 141.1,35.3 140.4,35.1C140.1,35 139.8,34.9 139.5,34.7C138,33.8 138,31.4 139.5,30.3C139.8,30.1 140.3,29.8 141,29.6L142.2,29.2L142.3,29.2C143.9,28.7 144,28.6 143.8,26.9C143.7,25.8 142.3,25.3 140,26.4L139.4,26.7C139.5,26.3 139.7,25.8 139.8,25.3M140.6,32.2C140.6,33.1 141.1,33.6 141.9,33.8C142.1,33.8 142.3,33.9 142.5,33.8C143.4,33.7 143.8,33.2 143.8,32.6L143.8,30.3L142,30.3C141.1,30.2 140.5,30.8 140.6,32.2" style="fill:rgb(0,112,136);fill-rule:nonzero;"/>
            <path d="M149.9,33L149.9,26.2C149.9,25.7 149.8,25.1 149.6,24.7C149.6,24.6 149.5,24.5 149.5,24.4L152.2,24.4L152.2,26.2C152.6,25.8 152.9,25.4 153.3,25C153.4,24.9 153.5,24.7 153.6,24.5C154,24.4 154.3,24.2 154.7,24.2C157.1,23.9 158.3,24.9 158.3,26.8L158.3,33C158.3,34 158.4,34.5 158.8,35L155.6,35C155.9,34.4 156,33.9 156,33L156,27.2C156,26.1 155.2,25.5 153.8,25.8C153.5,25.9 153.1,26.1 152.7,26.5C152.3,26.9 152.2,27.1 152.2,27.2L152.2,33C152.2,33.8 152.3,34.3 152.5,34.7C152.5,34.8 152.6,34.9 152.6,35L149.4,35C149.7,34.5 149.9,33.9 149.9,33" style="fill:rgb(0,112,136);fill-rule:nonzero;"/>
            <path d="M168.3,22.2C168.3,20.6 168.2,20.3 167.8,19.6L171,19.6C170.7,20.3 170.5,21 170.5,22.2L170.5,33C170.5,33.9 170.6,34.5 170.9,35L168.2,35L168.2,33.6C166.8,35.6 163.6,35.7 162,33.6C161.2,32.6 160.8,31 161.1,29.2C161.2,28.4 161.5,27.7 161.9,27C162.8,25.6 164,24.7 165.4,24.4C166.5,24.1 167.5,24.2 168.2,24.5L168.2,22.2L168.3,22.2ZM168,26.3C167.3,25.7 166.4,25.5 165.5,25.7C164.3,26.1 163.8,26.6 163.5,28.3C163.4,28.7 163.4,29.2 163.4,29.6C163.4,30.2 163.5,30.7 163.6,31.1C164.2,33.2 166.3,34 167.6,33.2C168.3,32.8 168.4,32.6 168.4,32L168.4,26.6C168.2,26.5 168.1,26.4 168,26.3" style="fill:rgb(0,112,136);fill-rule:nonzero;"/>
            <path d="M179.4,32.9L179.4,21.6C179.4,20.8 179.2,20.2 178.8,19.6L182.5,19.6C182.4,19.7 182.4,19.8 182.3,19.9C182,20.5 181.9,21 181.9,21.6L181.9,26.3L188.1,26.3L188.1,21.6C188.1,21.1 188,20.5 187.7,19.9C187.7,19.8 187.6,19.7 187.5,19.6L191.2,19.6C190.8,20.2 190.7,20.8 190.7,21.6L190.7,32.9C190.7,33.8 190.9,34.4 191.3,35L187.6,35C187.7,34.9 187.7,34.8 187.8,34.7C188.1,34.1 188.2,33.5 188.2,32.9L188.2,28.1L182,28.1L182,32.9C182,33.4 182.1,33.8 182.3,34.3C182.4,34.5 182.5,34.8 182.6,35L178.9,35C179.2,34.4 179.4,33.8 179.4,32.9" style="fill:rgb(0,112,136);fill-rule:nonzero;"/>
            <path d="M197.9,24.4C201.4,23.6 204.2,25.7 204.4,29.6C204.5,32.3 202.9,34.5 200.4,35C197.4,35.7 194.9,34.1 194.2,31.1C194.1,30.7 194.1,30.3 194,29.9C193.8,27.2 195.5,25 197.9,24.4M196.4,30.5C196.7,31.7 197.2,32.5 197.9,32.9C199,33.6 200,33.8 200.7,33.5C201.4,33.2 201.6,33 201.8,32.3C201.9,31.9 202.1,31.2 202.1,30.1C202.1,29.6 202.1,29.2 201.9,28.8C201.6,27.6 201.1,26.8 200.4,26.3C199.5,25.7 198.7,25.5 197.8,25.7C197.7,25.7 197.6,25.8 197.4,25.8C196.5,26.1 196.3,26.4 196.2,28.1C196.2,29.2 196.2,29.9 196.4,30.5" style="fill:rgb(0,112,136);fill-rule:nonzero;"/>
            <path d="M207.4,33L207.4,26.2C207.4,25.4 207.3,24.9 206.9,24.3L209.6,24.3L209.6,26C210,25.5 210.4,25 210.8,24.5C211.2,24.3 211.6,24.2 212,24.2C213.9,24 215,24.8 215.2,26.1C215.6,25.6 216,25.1 216.4,24.6C216.8,24.4 217.2,24.3 217.6,24.3C219.7,24.1 220.7,25.1 220.7,27L220.7,33.1C220.7,34 220.8,34.5 221.2,35.1L218,35.1C218,35 218.1,34.9 218.1,34.8C218.3,34.2 218.4,33.6 218.4,33.1L218.4,27.2C218.4,27.1 218.4,26.9 218.4,26.8C218.3,25.9 217.2,25.5 216.1,26.1C215.9,26.2 215.7,26.4 215.5,26.5C215.2,26.8 215.1,27 215.1,27.2L215.1,33C215.1,33.9 215.2,34.4 215.6,35L212.4,35C212.7,34.4 212.9,33.9 212.9,33L212.9,27.1C212.9,26 212.3,25.5 211.2,25.7C210.9,25.7 210.7,25.9 210.3,26.1C210.2,26.1 210.2,26.2 210.1,26.3C209.7,26.7 209.6,26.9 209.6,27L209.6,33C209.6,33.9 209.7,34.5 210.1,35L206.9,35C207.2,34.5 207.4,34 207.4,33" style="fill:rgb(0,112,136);fill-rule:nonzero;"/>
            <path d="M226.1,29.9C226.1,30.2 226.1,30.4 226.1,30.7C226.4,33.3 228.3,34.3 230.8,33.2C231.4,32.9 231.7,32.7 232,32.5C231.9,32.7 231.8,32.8 231.7,33C231.5,33.5 231.3,34 231.1,34.5C230.5,34.8 229.9,35 229.3,35.1C225.3,35.6 223,33.2 223.8,28.3C224.1,26.2 225.2,25 226.6,24.5C229.9,23.4 232.2,25.3 232.1,29.5C232.1,29.6 232.1,29.8 232.1,30L226.1,30L226.1,29.9ZM230.3,28.6C230.3,28.5 230.3,28.3 230.3,28.1C230.2,26.2 229.5,25.4 228.4,25.4C227.3,25.4 226.5,26.1 226.3,28.1C226.3,28.2 226.3,28.4 226.3,28.6L230.3,28.6Z" style="fill:rgb(0,112,136);fill-rule:nonzero;"/>
            <path d="M240.8,26.1C240.8,26.2 240.8,26.4 240.9,26.6C240.8,26.5 240.7,26.4 240.6,26.4C239.4,25.5 238.3,25.3 237.5,25.7C236.7,26.1 236.5,27.1 237.2,27.8C237.3,28 237.5,28.1 238,28.4L238.8,29C240.7,30.3 241.2,31 241.2,32.3C241.1,34.3 239.4,35.6 236.4,35.2C235.8,35.1 235.3,35 234.7,34.7C234.8,33.9 234.8,33.2 234.7,32.4C234.8,32.5 234.8,32.5 234.9,32.6C236.1,33.9 237.3,34.2 238.2,33.8C239.1,33.4 239.3,32.3 238.6,31.6C238.4,31.4 238.2,31.2 237.6,30.8L237,30.4L236.7,30.3C235.6,29.6 235,28.9 234.8,28.1C234.1,25.7 235.8,23.9 239.2,24.2C239.8,24.3 240.3,24.4 240.9,24.6C240.8,25.2 240.8,25.6 240.8,26.1" style="fill:rgb(0,112,136);fill-rule:nonzero;"/>
        </g>
    </g>
</svg>
